<svg xmlns="http://www.w3.org/2000/svg" viewBox="0 0 2735.03 1965.92"><g><g fill-rule="evenodd"><path d="M2433.13 718.45c-61.55 242.39-498.66 452.06-1028.72 452.06-383.69 0-718.76-109.92-897.86-262.53 65.58 459.23 489.63 958 928.09 958 337.4 0 591.41-113.23 827.2-583.44-189.15 447.58-516.8 683.36-891.16 683.36-251.34 0-455.72-106-612.82-268.13C373.94 1703.77 0 1352.42 0 1010.4c0-158.8 139-271.56 369.91-282.5-1.06-22.81-1.65-45.49-1.65-67.78 0-179.57 211.45-323.24 524.86-397.64C656.18 337.73 502.94 460 502.94 608.32c0 250.88 438.5 481.28 979.21 481.28 460.08 0 846.1-166.81 951-371.14zM731.85 1669.94c-213.19-236.38-333-578-358.38-887.1-187.12 27.35-266.56 131-266.56 258.72 0 288.6 349.02 611.08 624.94 628.38z" fill="#956134"/><path d="M1170.81 193c280.89 102.59 319.81 278.13 293.82 448.17 189.15-368.55 542.49-436.34 919.52-352.7q-692.79-54-874.54 417.48c88.18 94.15 219.21 125.94 340.11 125.94 354.91 0 719.77-394.67 885.31-743.17-233.33 144-513.45 0-770.18 0-199.62 0-373.1 79.52-453.13 274.49-16.79-51.08-51.16-93.43-99.83-128C1301.63 156.77 1137.32 133.11 1081 0c-35.27 200.26 1 481.24 153.46 589.59 51.93 36.92 117.94 63.29 184.58 49.73q65.81-258-248.25-446.35z" fill="#5eb530"/></g></g></svg>